<mxfile host="65bd71144e" modified="2020-12-20T20:38:38.724Z" agent="5.0 (Windows NT 10.0; Win64; x64) AppleWebKit/537.36 (KHTML, like Gecko) Code/1.52.1 Chrome/83.0.4103.122 Electron/9.3.5 Safari/537.36" version="13.10.0" etag="wX8TwjtzHZoCZEIidmW_" type="embed">
    <diagram id="bCU7D1yxFHBLOErIZVKP" name="Page-1">
        <mxGraphModel dx="1146" dy="769" grid="1" gridSize="10" guides="1" tooltips="1" connect="1" arrows="1" fold="1" page="1" pageScale="1" pageWidth="850" pageHeight="1100" math="0" shadow="0">
            <root>
                <mxCell id="0"/>
                <mxCell id="1" parent="0"/>
                <mxCell id="2" value="AZ1" style="whiteSpace=wrap;html=1;aspect=fixed;" vertex="1" parent="1">
                    <mxGeometry x="90" y="70" width="80" height="80" as="geometry"/>
                </mxCell>
                <mxCell id="3" value="AZ2" style="whiteSpace=wrap;html=1;aspect=fixed;" vertex="1" parent="1">
                    <mxGeometry x="220" y="70" width="80" height="80" as="geometry"/>
                </mxCell>
                <mxCell id="4" value="wan3b2" style="whiteSpace=wrap;html=1;aspect=fixed;" vertex="1" parent="1">
                    <mxGeometry x="220" y="190" width="80" height="80" as="geometry"/>
                </mxCell>
                <mxCell id="5" value="wan3b1" style="whiteSpace=wrap;html=1;aspect=fixed;" vertex="1" parent="1">
                    <mxGeometry x="80" y="190" width="80" height="80" as="geometry"/>
                </mxCell>
            </root>
        </mxGraphModel>
    </diagram>
</mxfile>